<?xml version="1.0" encoding="UTF-8" standalone="no"?>
<!-- Generator: Adobe Illustrator 14.0.0, SVG Export Plug-In . SVG Version: 6.00 Build 43363)  -->

<svg
   xmlns:dc="http://purl.org/dc/elements/1.1/"
   xmlns:cc="http://creativecommons.org/ns#"
   xmlns:rdf="http://www.w3.org/1999/02/22-rdf-syntax-ns#"
   xmlns:svg="http://www.w3.org/2000/svg"
   xmlns="http://www.w3.org/2000/svg"
   xmlns:xlink="http://www.w3.org/1999/xlink"
   xmlns:sodipodi="http://sodipodi.sourceforge.net/DTD/sodipodi-0.dtd"
   xmlns:inkscape="http://www.inkscape.org/namespaces/inkscape"
   version="1.1"
   x="0px"
   y="0px"
   width="304.72px"
   height="396.85px"
   viewBox="0 0 304.72 396.85"
   enable-background="new 0 0 304.72 396.85"
   xml:space="preserve"
   id="svg2"
   inkscape:version="0.48.1 r9760"
   sodipodi:docname="favicon.svg"><metadata
   id="metadata71"><rdf:RDF><cc:Work
       rdf:about=""><dc:format>image/svg+xml</dc:format><dc:type
         rdf:resource="http://purl.org/dc/dcmitype/StillImage" /></cc:Work></rdf:RDF></metadata><defs
   id="defs69" /><sodipodi:namedview
   pagecolor="#ffffff"
   bordercolor="#666666"
   borderopacity="1"
   objecttolerance="10"
   gridtolerance="10"
   guidetolerance="10"
   inkscape:pageopacity="0"
   inkscape:pageshadow="2"
   inkscape:window-width="640"
   inkscape:window-height="480"
   id="namedview67"
   showgrid="false"
   inkscape:zoom="0.82146906"
   inkscape:cx="152.36"
   inkscape:cy="212.42431"
   inkscape:window-x="7"
   inkscape:window-y="24"
   inkscape:window-maximized="0"
   inkscape:current-layer="svg2" />


<g
   id="g3048"><g
     id="Layer_1">
	<polygon
   id="polygon5"
   points="86.139,135.202 131.698,135.202 171.698,262.761 86.139,262.761  "
   fill="#0F458A" />
	<polygon
   id="polygon7"
   points="133.139,135.202 213.698,135.202 213.698,262.761 171.139,262.761  "
   fill="#C1001D" />
</g><g
     id="Layer_2">
	<g
   id="g10">
		<g
   id="g12">
			<linearGradient
   y2="275.6482"
   x2="177.878"
   y1="122.0139"
   x1="121.9597"
   gradientUnits="userSpaceOnUse"
   id="SVGID_1_">
				<stop
   id="stop15"
   style="stop-color:#000000;stop-opacity:0"
   offset="0" />
				<stop
   id="stop17"
   style="stop-color:#000000;stop-opacity:0.72"
   offset="1" />
			</linearGradient>
			<rect
   id="rect19"
   height="127.559"
   width="127.559"
   clip-rule="evenodd"
   y="135.052"
   x="86.139"
   fill-rule="evenodd"
   fill="url(#SVGID_1_)" />
		</g>
		<defs
   id="defs21">
			<filter
   height="127.559"
   width="127.559"
   y="135.052"
   x="86.139"
   filterUnits="userSpaceOnUse"
   id="Adobe_OpacityMaskFilter">
				
					<feColorMatrix
   id="feColorMatrix24"
   result="source"
   color-interpolation-filters="sRGB"
   values="-1 0 0 0 1  0 -1 0 0 1  0 0 -1 0 1  0 0 0 1 0"
   type="matrix" />
			</filter>
		</defs>
		<mask
   id="SVGID_2_"
   height="127.559"
   width="127.559"
   y="135.052"
   x="86.139"
   maskUnits="userSpaceOnUse">
			<g
   id="g27"
   filter="url(#Adobe_OpacityMaskFilter)">
				<image
   sodipodi:absref="/home/chalofa/repos/fa/public/images/favicons/C966B781.jpg"
   xlink:href="C966B781.jpg"
   overflow="visible"
   width="132"
   height="132"
   transform="matrix(1 0 0 1 84.0002 132.8499)"
   id="image29">
				</image>
			</g>
		</mask>
		<g
   id="g31"
   mask="url(#SVGID_2_)"
   opacity="0.28">
			<rect
   id="rect33"
   height="127.559"
   width="127.559"
   clip-rule="evenodd"
   y="135.052"
   x="86.139"
   fill-rule="evenodd" />
		</g>
	</g>
</g><g
     id="Layer_3">
	<g
   id="Layer_2_1_">
		<g
   id="g37">
			<path
   id="path39"
   d="M178.97,259.81c1.56-1.54,3.659-4.59,4.34-5.76c11.01-18.87,13.069-44.31,3.939-68.69     c-9.24-24.63-27.96-42.18-48.76-48.569c-0.97-0.3-3.72-1.46-5.11-1.71c-1.649-0.301-1.87,0.33-1.87,0.33l-3.289,1.279     c0,0-1.631-0.189-3.03,1.28c-1.47,1.53-3.44,5.05-4.11,6.18c-11.2,18.92-13.62,44.591-4.45,69.07     c8.67,23.11,25.631,39.73,44.94,46.97c1.57,0.59,6.34,2.261,8.72,2.63c2.49,0.591,2.391-0.43,2.391-0.43l4.159-1.45     C176.84,260.94,177.55,261.2,178.97,259.81z"
   fill="#FFFFFF" />
			<path
   id="path41"
   d="M172.68,189.9C162.8,163.55,147,143.36,131.76,135.32c0,0-0.18-0.409-2.21,0.381     c-1.979,0.77-1.75,1.159-1.75,1.159c-13.399,18.65-16.63,47.32-6.279,74.931c9.88,26.359,29.52,44.77,50.59,50.54     c0,0,0.649,0.85,2.83,0c2.12-0.83,1.95-1.87,1.95-1.87C184.32,246.31,183.03,217.52,172.68,189.9z"
   fill="#FFFFFF" />
			<path
   id="path43"
   d="M181.85,241.81c2.08-15.189-0.74-32.899-7.891-51.97c-8.689-23.19-20.17-38.96-35.899-49.32     c-2.15-1.41-3.011-1.52-0.63,0.3c12.88,9.87,25.43,27.721,33.77,49.96c6.79,18.131,9.68,36.761,8.76,51.431     C179.48,249.88,180.91,248.61,181.85,241.81z"
   fill="#013369" />
			<path
   id="path45"
   d="M156.35,158.93c0,0-2.91,3.97-2.801,7.98c0.15,5.819,3.391,15.72,8.351,29.029     c5.16,13.84,9.67,24.45,11.74,26.46c4.119,3.99,7.67,6.19,7.67,6.19s5.96-4.68,5.88-12.74c-0.04-3.109,0.14-14.05-5.09-27.85     c-5.04-13.29-10.221-21.471-15.69-25.221C162.66,160.21,156.35,158.93,156.35,158.93z"
   fill="#013369" />
			<g
   id="g47">
				<path
   id="path49"
   d="M168.54,167.98c0,0-1.12-1.33-2.17-1.31c-1.04,0.03-2.58-0.25-4.3,0.609c-1.07,0.54-2.9,1.771-3.67,2.95      c-0.47,0.721-0.36,1.33,0.02,2.03c0.96,0.25,1.91-0.87,5.69-2.68C167.01,168.2,168.22,168.62,168.54,167.98z"
   fill="#FFFFFF" />
				<path
   id="path51"
   d="M171.13,173.92c-0.09-0.38-0.29-0.63-0.779-0.95c-1.48,0.48-2.83,0.92-4.28,1.49l-3.16,1.229      c-0.6,0.23-0.99,0.301-1.32,0.851c-0.3,0.49-0.359,1.069,0.011,1.56c0.35,0.47,1.01,0.311,1.54,0.16      c1.989-0.55,3.96-1.39,5.88-2.17c1.359-0.55,2.779-0.88,2.17-1.96L171.13,173.92z"
   fill="#FFFFFF" />
				<path
   id="path53"
   d="M174.17,180.35c-0.149-0.66-0.3-1.08-1.05-1.08c-0.7,0.01-1.25,0.28-1.899,0.521      c-1.7,0.64-3.061,1.05-5.021,1.6c-0.479,0.141-1.72,0.55-2.02,0.98c-0.131,0.189-0.681,1.31-0.601,1.54      c0.48,1.35,3.01,0.06,3.79-0.21c1.67-0.58,3.69-1.19,5.3-1.79c0.681-0.261,1.88-0.16,1.601-1.28L174.17,180.35z"
   fill="#FFFFFF" />
				<path
   id="path55"
   d="M177.34,186.42c-0.29-0.771-0.33-0.99-1.119-0.82c-1.091,0.23-2.16,0.94-3.2,1.351      c-1.141,0.439-2.391,0.67-3.5,1.17c-0.74,0.33-1.63,0.489-2.3,0.96c-0.671,0.47-1.5,2.449-0.12,2.5      c0.55,0.02,1.1-0.301,1.62-0.49c0.97-0.35,2-0.49,3-0.771c1.279-0.369,2.52-0.939,3.77-1.43c0.5-0.189,1.28-0.35,1.67-0.72      c0.37-0.351,0.271-0.811,0.26-1.3L177.34,186.42z"
   fill="#FFFFFF" />
				<path
   id="path57"
   d="M179.92,193.48c-0.279-0.75-0.18-1.26-1-1.12c-0.739,0.141-1.5,0.53-2.21,0.811      c-1.97,0.76-3.79,1.5-5.72,2.25c-1,0.39-2.44,1.05-2.2,2.5c0.26,1.55,2.22,0.51,2.99,0.21c1.79-0.7,3.59-1.34,5.38-2.04      c0.8-0.31,1.71-0.63,2.44-1.08c0.56-0.34,0.609-0.75,0.37-1.35L179.92,193.48z"
   fill="#FFFFFF" />
				<path
   id="path59"
   d="M182.1,200.52c-0.301-0.83-0.25-1.35-1.04-0.85c-0.771,0.5-1.82,0.77-2.721,1.109      c-1.18,0.461-2.39,0.78-3.64,1.15c-0.76,0.23-1.94,0.47-2.61,0.92c-0.58,0.4-0.96,2.01-0.22,2.53      c0.92,0.64,3.351-0.811,4.271-1.17c1.449-0.561,2.92-0.97,4.369-1.53c0.641-0.25,1.681-0.5,1.591-1.63V200.52z"
   fill="#FFFFFF" />
				<path
   id="path61"
   d="M183.02,207.45c-0.12-0.53-0.101-1.12-0.61-1.08c-0.35,0.02-0.56,0.21-0.82,0.39      c-0.33,0.24-1.159,0.61-1.54,0.76c-2.04,0.8-3.739,1.2-5.779,2c-0.95,0.37-1.87,1.29-1.23,2.431c0.78,1.35,3.391-0.41,4.46-0.78      c1.36-0.46,2.721-0.98,4.03-1.58c0.64-0.3,1.52-0.88,1.46-1.69L183.02,207.45z"
   fill="#FFFFFF" />
				<path
   id="path63"
   d="M184.2,213.95c-0.28-0.28-0.61-0.551-1.18-0.21c-0.8,0.47-1.41,1.069-2.23,1.52      c-1.04,0.58-2.17,1.01-3.3,1.4c-1.64,0.58-1.87,0.239-2.48,0.739c-0.399,0.33-0.56,0.78-0.409,1.301      c0.189,0.689,0.6,0.72,1.199,0.699c1.54-0.04,2.82-0.279,4.311-0.729c0.89-0.26,2.46-1.08,3.149-1.78      c0.91-0.91,1.23-1.86,1.24-2.21C184.51,214.34,184.2,213.95,184.2,213.95z"
   fill="#FFFFFF" />
				<path
   id="path65"
   d="M164.23,167.72c0.05,0.5,0.529,0.34,1.08,1.1c0.76,1.03,1.52,2.061,2.08,3.23      c0.58,1.24,1.27,2.83,1.859,4.06c0.62,1.29,1.07,2.28,1.771,3.561c1.649,2.96,2.56,6.16,3.75,9.33l3.38,9.02      c1.09,2.91,1.89,5.7,2.39,8.66c0.351,2.14,1.59,7.69,1.59,8.38c0.011,0.99,0.101,1.181-0.42,2.07      c-0.399,0.689-1.38,0.77-1.92,0.62c-0.7-0.19-0.89,0.01-1.35-1.08c-0.41-0.97-0.4-2.43-0.61-3.68      c-0.22-1.33-0.83-2.521-1.06-3.841c-0.2-1.14-0.98-3.85-1.16-4.63c-1.061-4.42-2.561-7.359-4.271-12.46      c-1.5-4.45-4.72-11.84-5.26-12.96c-0.74-1.52-3.79-6.76-4.79-8.18c-0.399-0.58-0.229-1.5,0.04-2.25      c0.17-0.44,0.24-0.51,1.141-0.97L164.23,167.72z"
   fill="#FFFFFF" />
			</g>
		</g>
	</g>
</g></g>
</svg>